<svg xmlns="http://www.w3.org/2000/svg" version="1.1" xmlns:xlink="http://www.w3.org/1999/xlink" width="512" height="512" x="0" y="0" viewBox="0 0 60 60" style="enable-background:new 0 0 512 512" xml:space="preserve" class=""><g><path d="M3 56h54v2H3zM6 54h48V27.642c-1.548 1.607-3.506 3.164-6 4.49v4.367c0 1.93-1.57 3.5-3.5 3.5s-3.5-1.57-3.5-3.5v-1.744c-3.124.776-6.752 1.244-11 1.244-12.541 0-19.799-3.998-24-8.358v26.358zm36.182-10.828C42.513 42.449 43.209 42 44 42s1.487.449 1.817 1.172c.54 1.181 1.183 2.97 1.183 4.793C47 51.156 45.038 52 44 52s-3-.843-3-4.035c0-1.823.643-3.613 1.182-4.793z" fill="#000000" opacity="1" data-original="#000000" class=""></path><path d="M44.029 50c.113-.011.971-.164.971-2.035 0-1.463-.544-2.962-1.001-3.962-.454 1-.999 2.499-.999 3.962 0 1.872.857 2.024 1.029 2.035zM46 6H25v12.5c0 .827.673 1.5 1.5 1.5s1.5-.673 1.5-1.5V18c0-1.654 1.346-3 3-3s3 1.346 3 3v8.5c0 .827.673 1.5 1.5 1.5s1.5-.673 1.5-1.5v-4.671c0-.801.312-1.555.879-2.122a2.952 2.952 0 0 1 3.269-.65A2.952 2.952 0 0 1 43 21.829v10.258a27.766 27.766 0 0 0 3-1.203zM43 36.5c0 .827.673 1.5 1.5 1.5s1.5-.673 1.5-1.5v-3.415c-.936.405-1.933.779-3 1.114zM54 6h-6v23.825c2.654-1.57 4.593-3.411 6-5.231zM3 2h54v2H3z" fill="#000000" opacity="1" data-original="#000000" class=""></path><path d="M6 6v18.593C9.57 29.21 16.514 34 30 34c4.305 0 7.924-.5 11-1.315V21.828a.982.982 0 0 0-.617-.924.977.977 0 0 0-1.09.217.994.994 0 0 0-.293.708V26.5c0 1.93-1.57 3.5-3.5 3.5S32 28.43 32 26.5V18c0-.551-.449-1-1-1s-1 .449-1 1v.5c0 1.93-1.57 3.5-3.5 3.5S23 20.43 23 18.5V6zm18.182 18.172C24.513 23.449 25.209 23 26 23s1.487.449 1.817 1.172c.54 1.181 1.183 2.97 1.183 4.793C29 32.156 27.038 33 26 33s-3-.843-3-4.035c0-1.823.643-3.613 1.182-4.793z" fill="#000000" opacity="1" data-original="#000000" class=""></path><path d="M26.029 31c.113-.011.971-.164.971-2.035 0-1.463-.544-2.962-1.001-3.962-.454 1-.999 2.499-.999 3.962 0 1.872.857 2.024 1.029 2.035zM4 25.26v-3.82a21.43 21.43 0 0 1-1.96-5.47c-.1-.47.02-.96.32-1.34.33-.4.81-.63 1.33-.63H4v-2h-.31c-1.13 0-2.18.5-2.88 1.37-.69.85-.96 1.95-.73 3.02.39 1.87 1.24 4.71 3.07 7.62.26.41.54.83.85 1.25zM56.31 12H56v2h.31c.52 0 1 .23 1.33.63.3.38.42.87.32 1.35-.29 1.39-.86 3.37-1.96 5.48v3.8c.31-.42.59-.84.85-1.25 1.83-2.91 2.68-5.75 3.07-7.62.23-1.07-.04-2.17-.73-3.02-.7-.87-1.75-1.37-2.88-1.37z" fill="#000000" opacity="1" data-original="#000000" class=""></path></g></svg>