<svg xmlns="http://www.w3.org/2000/svg" version="1.1" xmlns:xlink="http://www.w3.org/1999/xlink" width="512" height="512" x="0" y="0" viewBox="0 0 60 60" style="enable-background:new 0 0 512 512" xml:space="preserve" class=""><g><circle cx="47" cy="52" r="2" fill="#000000" opacity="1" data-original="#000000" class=""></circle><path d="M46 22c-5.514 0-10-4.486-10-10 0-2.206-1.794-4-4-4s-4 1.794-4 4c0 3.955-3.271 5-5 5-3.955 0-5-4.579-5-7 0-4.411-3.589-8-8-8s-8 3.589-8 8 3.589 8 8 8 8 3.589 8 8-3.589 8-8 8-8 3.589-8 8 3.583 7.995 7.99 8l.448-.01c.049.001.086.001.125.005 3.378-.054 5.74-.583 8.029-1.097 2.061-.462 4.006-.898 6.407-.898 4.746 0 6 4.579 6 7 0 1.654 1.346 3 3 3s3-1.346 3-3c0-1.228.168-12 6-12 5.617 0 10.823-1.523 10.995-12.436a1.045 1.045 0 0 1-.005-.125l.01-.449c-.005-4.407-3.592-7.99-8-7.99zM9.872 6.008a3 3 0 0 0-2.904 2.243 1 1 0 0 1-1.936-.502 5 5 0 0 1 4.84-3.74 1 1 0 1 1 0 2zM9 39c-.935 0-1.782.917-2.017 2.182a1.001 1.001 0 0 1-1.967-.365c.416-2.248 2.055-3.818 3.983-3.818a1 1 0 1 1 0 2zm11.707 5.293a.999.999 0 1 1-1.414 1.414l-.793-.793-.793.793a.997.997 0 0 1-1.414 0 .999.999 0 0 1 0-1.414l.793-.793-.793-.793a.999.999 0 1 1 1.414-1.414l.793.793.793-.793a.999.999 0 1 1 1.414 1.414l-.793.793zm25-15a.999.999 0 1 1-1.414 1.414l-.793-.793-.793.793a.997.997 0 0 1-1.414 0 .999.999 0 0 1 0-1.414l.793-.793-.793-.793a.999.999 0 1 1 1.414-1.414l.793.793.793-.793a.999.999 0 1 1 1.414 1.414l-.793.793z" fill="#000000" opacity="1" data-original="#000000" class=""></path><circle cx="52" cy="8" r="6" fill="#000000" opacity="1" data-original="#000000" class=""></circle></g></svg>